<svg width="17" height="16" viewBox="0 0 17 16" fill="none" xmlns="http://www.w3.org/2000/svg">
<path fill-rule="evenodd" clip-rule="evenodd" d="M8.15814 0C3.75623 0 0.214844 3.51909 0.214844 7.89329C0.214844 11.3795 2.49854 14.3395 5.64276 15.3919C6.03993 15.4577 6.17231 15.2275 6.17231 14.9972C6.17231 14.7999 6.17231 14.3066 6.17231 13.6488C3.95481 14.1421 3.49145 12.5964 3.49145 12.5964C3.12738 11.6755 2.59783 11.4453 2.59783 11.4453C1.8697 10.9519 2.66403 10.9519 2.66403 10.9519C3.45835 11.0177 3.88862 11.7742 3.88862 11.7742C4.58365 12.991 5.74205 12.6293 6.20541 12.4319C6.2716 11.9057 6.47019 11.5768 6.70187 11.3795C4.94772 11.1822 3.09429 10.4915 3.09429 7.46573C3.09429 6.61063 3.39216 5.88708 3.92171 5.36086C3.85552 5.16353 3.55765 4.3742 3.98791 3.25598C3.98791 3.25598 4.64985 3.05865 6.17231 4.0782C6.80116 3.91376 7.4962 3.81509 8.15814 3.81509C8.82008 3.81509 9.51512 3.91376 10.144 4.0782C11.6664 3.05865 12.3284 3.25598 12.3284 3.25598C12.7586 4.34131 12.4938 5.13064 12.3946 5.36086C12.891 5.91997 13.222 6.61063 13.222 7.46573C13.222 10.4915 11.3686 11.1493 9.58131 11.3466C9.87918 11.5768 10.1109 12.0702 10.1109 12.7937C10.1109 13.8461 10.1109 14.7012 10.1109 14.9644C10.1109 15.1617 10.2433 15.4248 10.6735 15.359C13.8177 14.3395 16.1014 11.3795 16.1014 7.89329C16.1014 3.51909 12.56 0 8.15814 0Z" fill="#222D39"/>
</svg>
