<svg width="97" height="29" viewBox="0 0 97 29" fill="none" xmlns="http://www.w3.org/2000/svg">
<g clip-path="url(#clip0_1_1841)">
<path d="M0.0351562 5.33203H3.38543V12.9723H10.4511V5.33203H13.8056V24.0867H10.4511V16.2855H3.38543V24.0867H0.0351562V5.33203ZM24.4213 17.9762C24.4213 19.5457 23.1757 20.8243 21.6466 20.8243C20.1175 20.8243 18.8719 19.5457 18.8719 17.9762V9.90166H15.6934V17.9762C15.6934 21.3445 18.3629 24.0845 21.6466 24.0845C24.9281 24.0845 27.5976 21.3445 27.5976 17.9762V9.90166H24.4213V17.9762ZM36.4673 9.99645C34.8909 9.99645 33.7913 10.466 32.7283 11.5373V5.33203H29.5412V16.8344C29.5412 21.1395 32.5736 24.0867 35.9797 24.0867C39.7681 24.0867 43.0862 21.0866 43.0862 17.0416C43.0862 13.0495 40.0258 9.99645 36.4673 9.99645ZM36.5467 21.0601C34.3862 21.0601 32.7347 19.2085 32.7347 17.0438C32.7347 14.8769 34.3862 13.0252 36.5467 13.0252C38.3765 13.0252 40.0301 14.8769 40.0301 17.0438C40.028 19.2085 38.3765 21.0601 36.5467 21.0601ZM48.4402 10.8209C48.4402 9.17643 49.5076 8.654 50.6759 8.654C51.6165 8.654 52.8621 9.38364 53.6739 10.272L55.7571 7.76785C54.7155 6.33281 52.6066 5.34085 50.8777 5.34085C47.4201 5.34085 44.9288 7.40192 44.9288 10.8209C44.9288 17.1606 52.5292 15.1502 52.5292 18.6993C52.5292 19.7948 51.4877 20.7603 50.2936 20.7603C48.4123 20.7603 47.8024 19.8213 46.9369 18.8293L44.6239 21.2806C46.0993 23.1322 47.9291 24.0735 50.1153 24.0735C53.3947 24.0735 56.0384 21.9859 56.0384 18.7235C56.0406 11.6828 48.4402 13.8739 48.4402 10.8209ZM64.4313 9.81349C61.0252 9.81349 57.9928 12.7607 57.9928 17.0658V28.5968H61.1798V22.3607C62.2429 23.4298 63.3425 23.9015 64.9188 23.9015C68.4774 23.9015 71.5378 20.8485 71.5378 16.8564C71.5378 12.8136 68.2176 9.81349 64.4313 9.81349ZM64.9983 20.8749C62.8378 20.8749 61.1863 19.0211 61.1863 16.8564C61.1863 14.6895 62.8378 12.8379 64.9983 12.8379C66.8281 12.8379 68.4817 14.6895 68.4817 16.8564C68.4817 19.0211 66.8281 20.8749 64.9983 20.8749ZM95.0026 21.0601C93.1234 21.0601 92.5887 20.2247 92.5887 18.9461V13.2854H95.5116V10.4153H92.5887V6.6326L89.3608 8.11834V19.6493C89.3608 22.5988 91.3431 24.0845 94.0619 24.0845C94.4678 24.0845 95.0284 24.058 95.3333 23.9809L96.1215 21.0072C95.765 21.0337 95.3591 21.0601 95.0026 21.0601Z" fill="#45535E"/>
<path d="M86.5949 13.451C85.9828 12.3709 85.1238 11.5067 84.05 10.8565C83.2468 10.3759 82.4135 10.0717 81.475 9.94165V6.51167C82.4135 6.10166 82.9955 5.19787 82.9955 4.14199C82.9955 2.70254 81.8702 1.53644 80.4699 1.53644C79.0675 1.53644 77.9229 2.70254 77.9229 4.14199C77.9229 5.19787 78.4726 6.10386 79.409 6.51167V9.94165C78.6573 10.0541 77.8799 10.2921 77.169 10.6625C75.7173 9.53164 70.956 5.8173 68.1705 3.64821C68.2371 3.40353 68.2865 3.15223 68.2865 2.8855C68.2865 1.29175 67.028 0 65.4753 0C63.9226 0 62.6641 1.29175 62.6641 2.8855C62.6641 4.47925 63.9226 5.77321 65.4774 5.77321C66.0079 5.77321 66.4976 5.6145 66.9206 5.35218L67.5091 5.81068L75.5863 11.7845C75.1589 12.1879 74.7616 12.6442 74.4437 13.1578C73.7994 14.2049 73.4043 15.3578 73.4043 16.6142V16.8766C73.4043 17.7583 73.5675 18.5915 73.8467 19.3741C74.0915 20.0574 74.4502 20.6791 74.8926 21.239L72.2123 23.9966C71.4199 23.6924 70.5265 23.8952 69.9294 24.5102C69.5214 24.9269 69.2916 25.4956 69.2937 26.0886C69.2937 26.6837 69.5192 27.2436 69.9316 27.6647C70.3375 28.0857 70.8916 28.3194 71.4693 28.3194C72.047 28.3216 72.5989 28.0857 73.007 27.6647C73.415 27.2481 73.6448 26.6793 73.6427 26.0886C73.6427 25.8571 73.6083 25.6323 73.5417 25.4184L76.3121 22.5748C76.6923 22.8438 77.1025 23.0708 77.5427 23.267C78.4125 23.6527 79.3725 23.8886 80.4227 23.8886H80.616C81.7778 23.8886 82.8731 23.6087 83.9039 23.0355C84.9885 22.4293 85.8389 21.6027 86.4811 20.5446C87.1254 19.4843 87.4819 18.3138 87.4819 17.0242V16.9603C87.4819 15.6928 87.1962 14.5223 86.5949 13.451ZM83.2103 19.4182C82.4586 20.2757 81.5931 20.8047 80.616 20.8047H80.4549C79.8965 20.8047 79.351 20.646 78.8163 20.3594C78.2128 20.042 77.7553 19.5901 77.3817 19.017C76.9951 18.4549 76.7846 17.8421 76.7846 17.1896V16.9912C76.7846 16.3519 76.9049 15.7457 77.2055 15.1726C77.5277 14.5466 77.9637 14.0594 78.5414 13.6714C79.1105 13.2879 79.7161 13.0983 80.3926 13.0983H80.4549C81.067 13.0983 81.649 13.2217 82.1966 13.5105C82.755 13.8169 83.2103 14.2357 83.5646 14.7868C83.9082 15.3379 84.1123 15.9331 84.1767 16.5812C84.1874 16.7156 84.1917 16.8545 84.1917 16.9846C84.1917 17.8641 83.8653 18.6797 83.2103 19.4182Z" fill="#F8761F"/>
</g>
<defs>
<clipPath id="clip0_1_1841">
<rect width="96.0863" height="28.5971" fill="white" transform="translate(0.0351562)"/>
</clipPath>
</defs>
</svg>
