<svg width="17" height="17" viewBox="0 0 17 17" fill="none" xmlns="http://www.w3.org/2000/svg">
<path d="M8.52476 1.48689C10.7419 1.48689 11.0045 1.49514 11.8804 1.53483C12.407 1.54123 12.9286 1.63733 13.4226 1.81893C13.7808 1.9562 14.1061 2.16648 14.3775 2.43624C14.649 2.706 14.8606 3.02925 14.9988 3.38519C15.1815 3.87602 15.2782 4.39436 15.2847 4.91767C15.3242 5.78803 15.3329 6.04894 15.3329 8.25217C15.3329 10.4554 15.3246 10.7163 15.2847 11.5867C15.2782 12.11 15.1815 12.6283 14.9988 13.1191C14.8606 13.4751 14.649 13.7983 14.3775 14.0681C14.1061 14.3379 13.7808 14.5481 13.4226 14.6854C12.9286 14.867 12.407 14.9631 11.8804 14.9695C11.0049 15.0088 10.7423 15.0174 8.52476 15.0174C6.30718 15.0174 6.04461 15.0092 5.16913 14.9695C4.64251 14.9631 4.12089 14.867 3.62695 14.6854C3.26875 14.5481 2.94345 14.3379 2.67198 14.0681C2.40051 13.7983 2.1889 13.4751 2.05076 13.1191C1.86801 12.6283 1.77131 12.11 1.76486 11.5867C1.72532 10.7163 1.71662 10.4554 1.71662 8.25217C1.71662 6.04894 1.72492 5.78803 1.76486 4.91767C1.77131 4.39436 1.86801 3.87602 2.05076 3.38519C2.1889 3.02925 2.40051 2.706 2.67198 2.43624C2.94345 2.16648 3.26875 1.9562 3.62695 1.81893C4.12089 1.63733 4.64251 1.54123 5.16913 1.53483C6.04501 1.49554 6.30758 1.48689 8.52476 1.48689ZM8.52476 0C6.2708 0 5.98688 0.00943057 5.10111 0.0495106C4.4119 0.0631331 3.73 0.192809 3.08442 0.433022C2.53061 0.640364 2.02901 0.965287 1.6146 1.38512C1.19172 1.79707 0.864463 2.2958 0.655677 2.84647C0.413943 3.48799 0.283445 4.16559 0.269737 4.85047C0.230194 5.72988 0.220703 6.01201 0.220703 8.25178C0.220703 10.4915 0.230193 10.7737 0.270527 11.6539C0.284236 12.3387 0.414734 13.0164 0.656468 13.6579C0.865022 14.2085 1.19201 14.7072 1.6146 15.1192C2.02924 15.5391 2.53112 15.8641 3.08521 16.0713C3.73079 16.3115 4.41269 16.4412 5.10191 16.4548C5.98767 16.4941 6.27041 16.5043 8.52555 16.5043C10.7807 16.5043 11.0634 16.4949 11.9492 16.4548C12.6384 16.4412 13.3203 16.3115 13.9659 16.0713C14.5173 15.8589 15.0181 15.5345 15.4362 15.1188C15.8543 14.703 16.1804 14.2052 16.3938 13.6571C16.6356 13.0156 16.7661 12.338 16.7798 11.6531C16.8193 10.7737 16.8288 10.4915 16.8288 8.25178C16.8288 6.01201 16.8193 5.72988 16.779 4.84969C16.7653 4.16481 16.6348 3.4872 16.393 2.84568C16.1845 2.29509 15.8575 1.79636 15.4349 1.38433C15.0203 0.964405 14.5184 0.639477 13.9643 0.432236C13.3187 0.192023 12.6368 0.0623473 11.9476 0.0487248C11.0626 0.00943063 10.7787 0 8.52476 0Z" fill="#222D39"/>
<path d="M8.52214 4.01562C7.67874 4.01562 6.85427 4.26415 6.15301 4.72977C5.45174 5.19539 4.90517 5.8572 4.58242 6.63149C4.25966 7.40579 4.17521 8.25781 4.33975 9.0798C4.50429 9.90179 4.91043 10.6568 5.50681 11.2495C6.10319 11.8421 6.86302 12.2457 7.69021 12.4092C8.51741 12.5727 9.37483 12.4888 10.154 12.168C10.9332 11.8473 11.5992 11.3042 12.0678 10.6073C12.5364 9.91048 12.7865 9.0912 12.7865 8.25311C12.7865 7.12926 12.3372 6.05144 11.5375 5.25676C10.7378 4.46207 9.65311 4.01562 8.52214 4.01562ZM8.52214 11.0037C7.97468 11.0037 7.43951 10.8424 6.98432 10.5401C6.52912 10.2379 6.17433 9.80832 5.96483 9.30572C5.75532 8.80311 5.70051 8.25006 5.80731 7.7165C5.91412 7.18293 6.17775 6.69282 6.56486 6.30815C6.95197 5.92347 7.44519 5.6615 7.98213 5.55537C8.51907 5.44924 9.07563 5.50371 9.58142 5.71189C10.0872 5.92008 10.5195 6.27263 10.8237 6.72496C11.1278 7.17729 11.2902 7.70909 11.2902 8.25311C11.2902 8.98261 10.9985 9.68224 10.4794 10.1981C9.96032 10.7139 9.25627 11.0037 8.52214 11.0037Z" fill="#222D39"/>
<path d="M12.9574 4.8398C13.5078 4.8398 13.9539 4.39647 13.9539 3.84959C13.9539 3.30271 13.5078 2.85938 12.9574 2.85938C12.4071 2.85938 11.9609 3.30271 11.9609 3.84959C11.9609 4.39647 12.4071 4.8398 12.9574 4.8398Z" fill="#222D39"/>
</svg>
