<svg width="132" height="29" viewBox="0 0 132 29" fill="none" xmlns="http://www.w3.org/2000/svg">
<g clip-path="url(#clip0_1_1844)">
<path d="M131.345 12.9366V10.5809H128.498V6.9193L128.402 6.95092L125.727 7.79201L125.675 7.80782V10.5841H121.454V9.03784C121.454 8.3169 121.611 7.76672 121.919 7.39992C122.227 7.03629 122.664 6.8529 123.224 6.8529C123.628 6.8529 124.043 6.95092 124.462 7.14064L124.566 7.18807V4.7059L124.517 4.68693C124.126 4.54148 123.594 4.46875 122.935 4.46875C122.104 4.46875 121.35 4.65531 120.691 5.0221C120.032 5.39205 119.515 5.91695 119.152 6.58413C118.791 7.25131 118.607 8.02284 118.607 8.87658V10.5746H116.624V12.9303H118.607V22.8621H121.454V12.9366H125.675V19.2416C125.675 21.8376 126.866 23.1562 129.221 23.1562C129.609 23.1562 130.015 23.1087 130.431 23.017C130.852 22.9222 131.142 22.8305 131.311 22.7293L131.348 22.7072V20.3325L131.231 20.4116C131.077 20.5159 130.883 20.6044 130.659 20.6677C130.431 20.7341 130.243 20.7657 130.095 20.7657C129.544 20.7657 129.138 20.6139 128.882 20.3135C128.627 20.01 128.498 19.4788 128.498 18.7357V12.9366H131.345ZM110.264 20.7657C109.23 20.7657 108.417 20.4147 107.842 19.7191C107.263 19.0234 106.97 18.0306 106.97 16.7658C106.97 15.463 107.263 14.4449 107.842 13.7366C108.417 13.0314 109.224 12.6741 110.24 12.6741C111.228 12.6741 112.013 13.0156 112.576 13.6891C113.143 14.3658 113.429 15.3776 113.429 16.6962C113.429 18.0306 113.158 19.0551 112.625 19.738C112.099 20.421 111.302 20.7657 110.264 20.7657ZM110.391 10.2868C108.42 10.2868 106.853 10.8813 105.736 12.0512C104.622 13.2212 104.055 14.8401 104.055 16.8638C104.055 18.7863 104.606 20.3325 105.696 21.4582C106.786 22.5838 108.266 23.1562 110.101 23.1562C112.013 23.1562 113.546 22.5554 114.663 21.3696C115.778 20.1839 116.344 18.5808 116.344 16.6045C116.344 14.6504 115.815 13.0947 114.768 11.9753C113.721 10.8528 112.247 10.2868 110.391 10.2868ZM99.4654 10.2868C98.1232 10.2868 97.015 10.6378 96.1685 11.3335C95.3158 12.0323 94.8848 12.9492 94.8848 14.0591C94.8848 14.6346 94.9771 15.1468 95.1618 15.5832C95.3465 16.0195 95.6328 16.4021 96.0115 16.7247C96.387 17.044 96.9719 17.3792 97.7415 17.7175C98.391 17.9926 98.8743 18.2234 99.1791 18.4068C99.4808 18.5871 99.6932 18.7673 99.8133 18.9412C99.9302 19.112 99.9887 19.3491 99.9887 19.6369C99.9887 20.4621 99.3884 20.8637 98.1509 20.8637C97.6923 20.8637 97.1689 20.7657 96.5933 20.5697C96.0238 20.3799 95.4851 20.0985 94.9987 19.738L94.8817 19.6495V22.4637L94.9248 22.4858C95.3281 22.6755 95.836 22.8368 96.4332 22.9633C97.0304 23.0898 97.5722 23.1562 98.0463 23.1562C99.5023 23.1562 100.672 22.802 101.528 22.1032C102.39 21.3981 102.824 20.4621 102.824 19.3143C102.824 18.4859 102.59 17.7776 102.125 17.2053C101.666 16.6361 100.869 16.1176 99.7548 15.6559C98.8682 15.2891 98.3018 14.9887 98.0678 14.7547C97.8431 14.5302 97.7261 14.2109 97.7261 13.8093C97.7261 13.452 97.8677 13.1674 98.1571 12.9334C98.4495 12.6994 98.859 12.5824 99.37 12.5824C99.844 12.5824 100.33 12.6583 100.811 12.8101C101.294 12.9619 101.716 13.1642 102.07 13.4109L102.187 13.4931V10.8212L102.141 10.8022C101.814 10.6599 101.383 10.5366 100.863 10.4354C100.349 10.3343 99.8748 10.2868 99.4654 10.2868ZM87.4628 20.7657C86.4285 20.7657 85.6158 20.4147 85.0401 19.7191C84.4614 19.0234 84.169 18.0306 84.169 16.7658C84.169 15.463 84.4614 14.4449 85.0401 13.7366C85.6127 13.0314 86.4223 12.6741 87.4382 12.6741C88.4264 12.6741 89.2113 13.0156 89.7747 13.6891C90.3411 14.3658 90.6274 15.3776 90.6274 16.6962C90.6274 18.0306 90.3565 19.0551 89.8239 19.738C89.2975 20.421 88.5002 20.7657 87.4628 20.7657ZM87.589 10.2868C85.6158 10.2868 84.052 10.8813 82.9345 12.0512C81.8202 13.2212 81.2538 14.8401 81.2538 16.8638C81.2538 18.7863 81.8048 20.3325 82.8945 21.4582C83.9843 22.5838 85.465 23.1562 87.2997 23.1562C89.2113 23.1562 90.7444 22.5554 91.8618 21.3696C92.9762 20.1839 93.5426 18.5808 93.5426 16.6045C93.5426 14.6504 93.0131 13.0947 91.9665 11.9753C90.9168 10.8528 89.4453 10.2868 87.589 10.2868ZM76.9317 12.7089V10.5809H74.1212V22.8589H76.9317V16.5792C76.9317 15.5105 77.1688 14.6346 77.6336 13.9706C78.0923 13.316 78.7049 12.984 79.4529 12.984C79.7053 12.984 79.9916 13.0283 80.2995 13.1105C80.6042 13.1959 80.8259 13.2876 80.9552 13.3824L81.0721 13.471V10.5619L81.026 10.543C80.7643 10.4291 80.3949 10.3722 79.9239 10.3722C79.2159 10.3722 78.5848 10.6062 78.043 11.0647C77.5689 11.4694 77.2242 12.0228 76.9625 12.7121H76.9317V12.7089ZM69.0849 10.2868C67.7951 10.2868 66.6438 10.5714 65.6649 11.1311C64.6829 11.6939 63.9256 12.4939 63.4084 13.5121C62.8943 14.5302 62.6327 15.716 62.6327 17.0409C62.6327 18.2013 62.8851 19.2669 63.3869 20.2029C63.8856 21.142 64.5936 21.8787 65.4925 22.3878C66.3883 22.8969 67.4226 23.1562 68.5678 23.1562C69.9038 23.1562 71.0459 22.8811 71.9601 22.3404L71.9971 22.3182V19.6716L71.8801 19.7602C71.4645 20.0701 71.0028 20.3167 70.5041 20.4969C70.0085 20.674 69.5529 20.7657 69.1558 20.7657C68.0537 20.7657 67.1671 20.4116 66.5237 19.7127C65.8804 19.0139 65.5541 18.0306 65.5541 16.7911C65.5541 15.5452 65.8958 14.5366 66.5668 13.7935C67.2348 13.0504 68.1245 12.6741 69.205 12.6741C70.1285 12.6741 71.0305 12.9967 71.8832 13.6291L72.0002 13.7176V10.9287L71.9632 10.9066C71.6431 10.7232 71.2059 10.5714 70.6611 10.4544C70.1162 10.3437 69.5867 10.2868 69.0849 10.2868ZM60.6995 10.5809H57.8889V22.8589H60.6995V10.5809ZM59.3204 5.35095C58.8586 5.35095 58.4553 5.51221 58.1229 5.83473C57.7904 6.15726 57.6211 6.56199 57.6211 7.03946C57.6211 7.51059 57.7873 7.90584 58.1167 8.21888C58.443 8.53192 58.8494 8.69002 59.3204 8.69002C59.7913 8.69002 60.1977 8.53192 60.5302 8.21888C60.8626 7.90584 61.0319 7.50743 61.0319 7.03629C61.0319 6.57464 60.8657 6.17307 60.5425 5.84422C60.2192 5.51853 59.8067 5.35095 59.3204 5.35095ZM52.3047 9.67656V22.8621H55.1738V5.72723H51.2027L46.1542 18.4543L41.2534 5.72723H37.1191V22.8621H39.8158V9.67656H39.9081L45.0829 22.8621H47.1177L52.2093 9.67656H52.3047Z" fill="#706D6E"/>
<path d="M14.1692 13.5871H0.941406V0H14.1692V13.5871Z" fill="#F1511B"/>
<path d="M28.7766 13.5871H15.5488V0H28.7766V13.5871Z" fill="#80CC28"/>
<path d="M14.1692 28.5981H0.941406V15.0078H14.1692V28.5981Z" fill="#00ADEF"/>
<path d="M28.7766 28.5981H15.5488V15.0078H28.7766V28.5981Z" fill="#FBBC09"/>
</g>
<defs>
<clipPath id="clip0_1_1844">
<rect width="130.403" height="28.5971" fill="white" transform="translate(0.941406)"/>
</clipPath>
</defs>
</svg>
