<svg width="96" height="29" viewBox="0 0 96 29" fill="none" xmlns="http://www.w3.org/2000/svg">
<g clip-path="url(#clip0_1_1831)">
<path d="M34.5478 11.2192C34.5478 8.37915 36.6061 6.39675 40.3478 6.39675C42.6298 6.39675 44.5007 7.13066 45.513 7.8477C45.6585 7.94893 45.9157 8.19919 45.7619 8.66034C45.5634 9.15805 45.1998 9.90883 44.937 10.3953C44.7859 10.6793 44.3972 10.6427 44.1987 10.5415C43.4772 10.1731 42.2942 9.55171 41.2092 9.43924C40.9351 9.40831 40.6583 9.39706 40.3814 9.40268C39.425 9.42518 38.6252 9.75698 38.3427 10.4909C38.2868 10.6287 38.256 10.7777 38.2504 10.9267C38.2253 11.894 39.562 12.2427 41.184 12.5239C44.1987 13.0441 46.4806 13.9327 46.4806 17.0511C46.4806 19.6999 44.386 22.0956 40.2835 22.0225C37.5793 21.9663 35.658 21.0496 34.6317 20.1554C34.5954 20.1245 34.2038 19.7252 34.4164 19.2416C34.6569 18.6201 35.0624 17.9087 35.3812 17.5319C35.5574 17.2901 36.0244 17.2507 36.2677 17.4026C37.115 17.9312 38.5105 18.7804 40.1185 18.8366C40.2444 18.8423 40.3702 18.8423 40.4961 18.8395C41.9419 18.8029 42.8172 18.2518 42.8004 17.3238C42.7836 16.5056 41.637 16.0275 39.8109 15.6817C36.8913 15.1305 34.5478 14.1661 34.5478 11.2192ZM61.0114 15.2627C58.956 15.2908 57.0739 15.8532 57.0208 17.4672C57.0208 18.7495 58.0527 19.3765 59.5041 19.295C60.8968 19.16 61.9567 18.5526 62.4237 17.7484C62.5971 17.4504 62.6223 16.334 62.6111 15.856C62.6083 15.7548 62.4097 15.5636 62.3202 15.5242C61.884 15.3414 61.5624 15.2852 61.0114 15.2627ZM54.1767 8.75876C55.1359 7.8955 57.0432 6.5486 60.0774 6.61889C64.082 6.70325 66.199 8.59004 66.3976 13.1088C66.4787 14.9703 66.3444 20.1667 66.3109 21.463C66.3053 21.6486 66.2438 21.7779 65.9949 21.7807C65.3349 21.806 63.8108 21.7976 63.1117 21.7863C62.7593 21.7695 62.7173 21.5923 62.7117 21.4095C62.7089 21.2886 62.6978 20.9315 62.6922 20.6391C62.6894 20.4844 62.544 20.49 62.5076 20.5294C61.568 21.5389 60.0299 22.0253 58.3939 22.0253C55.9078 22.0253 53.4272 20.5547 53.4356 17.6416C53.444 14.6581 55.547 13.1847 57.8598 12.8388C59.3391 12.6167 61.0087 12.8135 62.2727 13.3197C62.3538 13.3534 62.5188 13.3056 62.5188 13.1903C62.5244 12.8107 62.5048 12.0852 62.4321 11.7422C62.2475 10.8677 61.5204 10.1619 59.9963 9.9735C59.6831 9.93413 59.3671 9.92289 59.0483 9.94819C57.8346 10.0438 56.3776 10.9942 55.7735 11.3513C55.6309 11.4357 55.41 11.3738 55.3373 11.281C54.9849 10.8227 54.0984 9.48423 54.0285 9.27052C53.953 9.04838 54.0509 8.86842 54.1767 8.75876ZM67.7175 14.3123C67.6924 10.1507 70.5784 6.64139 75.2598 6.61046C78.1822 6.59077 80.3048 7.92362 80.6795 8.55067C80.755 8.69689 80.7158 8.82062 80.6627 8.96965C80.4166 9.49548 79.7902 10.5106 79.3455 11.0842C79.1554 11.3288 78.9512 11.1179 78.7107 10.9605C78.048 10.5162 76.7867 9.9735 75.5451 9.9735C73.2938 9.9735 71.6159 11.5257 71.6355 14.3826C71.6523 17.1242 73.2603 18.6314 75.5534 18.6848C76.7532 18.7157 77.9137 18.0212 78.5401 17.4532C78.7359 17.2817 78.9401 17.366 79.1638 17.5432C79.6028 17.9959 80.2348 18.6932 80.5844 19.1741C80.8137 19.4412 80.6431 19.7027 80.5592 19.8068C79.6084 21.0159 77.7739 22.0338 75.3465 22.045C70.2624 22.0844 67.7399 18.488 67.7175 14.3123ZM91.9831 21.8594C92.2208 21.8426 94.7685 21.4883 95.5487 21.3083C95.7416 21.2633 95.8116 21.1002 95.7025 20.9371C95.2662 20.2792 94.1197 18.4092 92.9171 16.7361C91.8125 15.198 90.6464 13.8455 90.2688 13.3253C90.1765 13.1988 90.1821 13.075 90.2828 12.9766C90.9987 12.2708 93.9966 9.31551 95.1264 8.09515C95.5627 7.61993 95.2998 7.41466 94.9306 7.305C94.2147 7.09129 93.057 6.82416 92.397 6.68357C92.1201 6.62452 91.7845 6.6442 91.5412 6.89727C90.4142 7.95455 86.9745 11.4244 85.9482 12.462C85.7636 12.6504 85.6545 12.6083 85.6545 12.3411C85.6461 10.339 85.607 1.77397 85.5371 0.365205C85.5315 0.179619 85.3106 0.0362116 85.1847 0.0305878C84.5387 -0.00315511 82.9083 -0.0144027 82.2651 0.024964C82.0862 0.0446474 81.9128 0.230233 81.896 0.384888C81.7478 2.63723 81.9575 19.1769 82.047 21.4883C82.0526 21.6542 82.1784 21.7863 82.335 21.7948C82.9755 21.8313 84.5639 21.8285 85.3022 21.8145C85.6657 21.8145 85.7105 21.5558 85.7105 21.5558L85.7664 17.1186C85.7664 17.1186 85.8027 16.9217 85.8643 16.8571C86.1244 16.5731 86.8487 15.797 87.1563 15.4961C87.229 15.423 87.3464 15.4286 87.4219 15.5298C87.7883 16.0275 88.8314 17.6388 89.799 19.0813C90.6883 20.4057 91.5161 21.5811 91.5748 21.6626C91.709 21.8566 91.8656 21.8651 91.9831 21.8594ZM48.6759 21.8454C48.8996 21.8538 50.5999 21.851 51.3522 21.851C51.6067 21.8566 51.7381 21.6626 51.7465 21.4939C51.9059 18.249 51.8388 2.80594 51.7381 0.368017C51.7297 0.157124 51.6403 0.0783903 51.4976 0.0587069C50.8516 -0.0284623 49.0143 -0.00877894 48.427 0.145876C48.3124 0.176807 48.2453 0.263976 48.2397 0.376453C48.0942 6.66107 48.1921 21.1537 48.2229 21.4292C48.2509 21.702 48.3935 21.8341 48.6759 21.8454Z" fill="#443642"/>
<path d="M3.20151 15.3936C2.1556 15.402 1.2663 14.775 0.939108 13.7936C0.927921 13.7571 0.916735 13.7205 0.905549 13.6812C0.550389 12.427 1.24113 11.1139 2.48 10.6949L22.3466 4.00537C22.5815 3.93789 22.8276 3.90133 23.0709 3.89852C24.1448 3.89008 25.0564 4.5312 25.392 5.53224L25.4228 5.62784C25.7947 6.93538 24.8719 8.09951 23.7644 8.4735C23.7644 8.4735 23.5631 8.54379 4.00691 15.2558C3.74963 15.3458 3.47557 15.3908 3.20151 15.3936Z" fill="#70CADB"/>
<path d="M6.51231 25.2208C5.45801 25.2292 4.56592 24.6106 4.24432 23.6433C4.23313 23.6067 4.22194 23.5702 4.21076 23.5336C3.85 22.2655 4.54075 20.9382 5.78241 20.5193L25.649 13.7651C25.9063 13.6779 26.172 13.6357 26.4376 13.6329C27.4947 13.6245 28.426 14.274 28.7532 15.2497L28.7839 15.351C28.9769 16.0258 28.8622 16.785 28.4819 17.3812C28.1967 17.8255 27.3018 18.2191 27.3018 18.2191L7.35686 25.0746C7.0856 25.1673 6.80035 25.218 6.51231 25.2208Z" fill="#E01765"/>
<path d="M23.0506 25.2636C21.9935 25.2749 21.0511 24.6 20.7155 23.5934L14.0849 3.78907L14.0513 3.6766C13.6934 2.41405 14.3841 1.09808 15.623 0.676289C15.8719 0.591931 16.1264 0.549753 16.3836 0.546941C16.7668 0.544129 17.1387 0.631298 17.4855 0.805637C18.0671 1.09526 18.509 1.60422 18.7159 2.22284L25.3465 22.0243L25.3661 22.089C25.7381 23.3993 25.0501 24.7181 23.8112 25.1371C23.5651 25.2186 23.3079 25.2608 23.0506 25.2636Z" fill="#E8A723"/>
<path d="M13.196 28.5985C12.1389 28.6098 11.1965 27.9321 10.8581 26.9255L4.23029 7.12118C3.79962 5.83895 4.48478 4.44705 5.76 4.0112C5.76279 4.0112 5.76279 4.0112 5.76559 4.00839C6.01169 3.92685 6.26617 3.88186 6.52625 3.87904C7.58334 3.8678 8.52577 4.54266 8.86136 5.54932L15.4892 25.3536C15.9198 26.6358 15.2347 28.0277 13.9594 28.4636C13.9566 28.4636 13.9539 28.4664 13.9539 28.4664C13.7078 28.5536 13.4533 28.5957 13.196 28.5985Z" fill="#3EB890"/>
<path d="M19.7813 20.8011L24.404 19.2123L22.8939 14.6992L18.2656 16.2711L19.7813 20.8011Z" fill="#CC2027"/>
<path d="M9.93986 24.1864L14.5625 22.5976L13.0384 18.0508L8.41016 19.6255L9.93986 24.1864Z" fill="#361238"/>
<path d="M16.49 10.9703L21.1127 9.38156L19.6193 4.92188L14.9883 6.48248L16.49 10.9703Z" fill="#65863A"/>
<path d="M6.64938 14.3508L11.2721 12.762L9.76193 8.24609L5.13086 9.8067L6.64938 14.3508Z" fill="#1A937D"/>
</g>
<defs>
<clipPath id="clip0_1_1831">
<rect width="94.9424" height="28.5971" fill="white" transform="translate(0.8125)"/>
</clipPath>
</defs>
</svg>
