<svg width="1500" height="569" viewBox="0 0 1500 569" fill="none" xmlns="http://www.w3.org/2000/svg">
<path fill-rule="evenodd" clip-rule="evenodd" d="M34.3945 535.672C33.0138 535.672 31.8945 534.553 31.8945 533.172V532.697C31.8945 531.316 33.0138 530.197 34.3945 530.197C35.7752 530.197 36.8945 531.316 36.8945 532.697V533.172C36.8945 534.553 35.7752 535.672 34.3945 535.672ZM34.3945 516.202C33.0138 516.202 31.8945 515.082 31.8945 513.702V512.752C31.8945 511.371 33.0138 510.252 34.3945 510.252C35.7752 510.252 36.8945 511.371 36.8945 512.752V513.702C36.8945 515.082 35.7752 516.202 34.3945 516.202ZM34.3945 496.256C33.0138 496.256 31.8945 495.137 31.8945 493.756V492.806C31.8945 491.426 33.0138 490.306 34.3945 490.306C35.7752 490.306 36.8945 491.426 36.8945 492.806V493.756C36.8945 495.137 35.7752 496.256 34.3945 496.256ZM34.3945 476.311C33.0138 476.311 31.8945 475.192 31.8945 473.811V472.861C31.8945 471.48 33.0138 470.361 34.3945 470.361C35.7752 470.361 36.8945 471.48 36.8945 472.861V473.811C36.8945 475.192 35.7752 476.311 34.3945 476.311ZM34.3945 456.366C33.0138 456.366 31.8945 455.246 31.8945 453.866V452.916C31.8945 451.535 33.0138 450.416 34.3945 450.416C35.7752 450.416 36.8945 451.535 36.8945 452.916V453.866C36.8945 455.246 35.7752 456.366 34.3945 456.366ZM34.3945 436.42C33.0138 436.42 31.8945 435.301 31.8945 433.92V432.971C31.8945 431.59 33.0138 430.471 34.3945 430.471C35.7752 430.471 36.8945 431.59 36.8945 432.971V433.92C36.8945 435.301 35.7752 436.42 34.3945 436.42ZM34.3945 416.475C33.0138 416.475 31.8945 415.356 31.8945 413.975V413.5C31.8945 412.119 33.0138 411 34.3945 411C35.7752 411 36.8945 412.119 36.8945 413.5V413.975C36.8945 415.356 35.7752 416.475 34.3945 416.475ZM18.2969 552.582C16.9162 552.582 15.7969 551.463 15.7969 550.082V549.607C15.7969 548.226 16.9162 547.107 18.2969 547.107C19.6776 547.107 20.7969 548.226 20.7969 549.607V550.082C20.7969 551.463 19.6776 552.582 18.2969 552.582ZM18.2969 533.112C16.9162 533.112 15.7969 531.992 15.7969 530.612V529.662C15.7969 528.281 16.9162 527.162 18.2969 527.162C19.6776 527.162 20.7969 528.281 20.7969 529.662V530.612C20.7969 531.992 19.6776 533.112 18.2969 533.112ZM18.2969 513.166C16.9162 513.166 15.7969 512.047 15.7969 510.666V509.717C15.7969 508.336 16.9162 507.217 18.2969 507.217C19.6776 507.217 20.7969 508.336 20.7969 509.717V510.666C20.7969 512.047 19.6776 513.166 18.2969 513.166ZM18.2969 493.221C16.9162 493.221 15.7969 492.102 15.7969 490.721V489.771C15.7969 488.391 16.9162 487.271 18.2969 487.271C19.6776 487.271 20.7969 488.391 20.7969 489.771V490.721C20.7969 492.102 19.6776 493.221 18.2969 493.221ZM18.2969 473.276C16.9162 473.276 15.7969 472.156 15.7969 470.776V469.826C15.7969 468.445 16.9162 467.326 18.2969 467.326C19.6776 467.326 20.7969 468.445 20.7969 469.826V470.776C20.7969 472.156 19.6776 473.276 18.2969 473.276ZM18.2969 453.33C16.9162 453.33 15.7969 452.211 15.7969 450.83V449.881C15.7969 448.5 16.9162 447.381 18.2969 447.381C19.6776 447.381 20.7969 448.5 20.7969 449.881V450.83C20.7969 452.211 19.6776 453.33 18.2969 453.33ZM18.2969 433.385C16.9162 433.385 15.7969 432.266 15.7969 430.885V430.41C15.7969 429.03 16.9162 427.91 18.2969 427.91C19.6776 427.91 20.7969 429.03 20.7969 430.41V430.885C20.7969 432.266 19.6776 433.385 18.2969 433.385ZM0 566.219C0 567.6 1.11929 568.719 2.5 568.719C3.88071 568.719 5 567.6 5 566.219V565.744C5 564.363 3.88071 563.244 2.5 563.244C1.11929 563.244 0 564.363 0 565.744V566.219ZM0 546.748C0 548.129 1.11929 549.248 2.5 549.248C3.88071 549.248 5 548.129 5 546.748V545.799C5 544.418 3.88071 543.299 2.5 543.299C1.11929 543.299 0 544.418 0 545.799V546.748ZM0 526.803C0 528.184 1.11929 529.303 2.5 529.303C3.88071 529.303 5 528.184 5 526.803V525.853C5 524.473 3.88071 523.353 2.5 523.353C1.11929 523.353 0 524.473 0 525.853V526.803ZM0 506.858C0 508.239 1.11929 509.358 2.5 509.358C3.88071 509.358 5 508.239 5 506.858V505.908C5 504.527 3.88071 503.408 2.5 503.408C1.11929 503.408 0 504.527 0 505.908V506.858ZM0 486.912C0 488.293 1.11929 489.412 2.5 489.412C3.88071 489.412 5 488.293 5 486.912V485.963C5 484.582 3.88071 483.463 2.5 483.463C1.11929 483.463 0 484.582 0 485.963V486.912ZM0 466.967C0 468.348 1.11929 469.467 2.5 469.467C3.88071 469.467 5 468.348 5 466.967V466.017C5 464.637 3.88071 463.517 2.5 463.517C1.11929 463.517 0 464.637 0 466.017V466.967ZM0 447.022C0 448.403 1.11929 449.522 2.5 449.522C3.88071 449.522 5 448.403 5 447.022V446.547C5 445.166 3.88071 444.047 2.5 444.047C1.11929 444.047 0 445.166 0 446.547V447.022Z" fill="#D1D1D1"/>
<path fill-rule="evenodd" clip-rule="evenodd" d="M1497.39 124.672C1496.01 124.672 1494.89 123.553 1494.89 122.172V121.697C1494.89 120.316 1496.01 119.197 1497.39 119.197C1498.78 119.197 1499.89 120.316 1499.89 121.697V122.172C1499.89 123.553 1498.78 124.672 1497.39 124.672ZM1497.39 105.201C1496.01 105.201 1494.89 104.082 1494.89 102.701V101.752C1494.89 100.371 1496.01 99.2516 1497.39 99.2516C1498.78 99.2516 1499.89 100.371 1499.89 101.752V102.701C1499.89 104.082 1498.78 105.201 1497.39 105.201ZM1497.39 85.2561C1496.01 85.2561 1494.89 84.1368 1494.89 82.7561V81.8063C1494.89 80.4256 1496.01 79.3063 1497.39 79.3063C1498.78 79.3063 1499.89 80.4256 1499.89 81.8063V82.7561C1499.89 84.1368 1498.78 85.2561 1497.39 85.2561ZM1497.39 65.3108C1496.01 65.3108 1494.89 64.1915 1494.89 62.8108V61.861C1494.89 60.4803 1496.01 59.361 1497.39 59.361C1498.78 59.361 1499.89 60.4803 1499.89 61.861V62.8108C1499.89 64.1915 1498.78 65.3108 1497.39 65.3108ZM1497.39 45.3655C1496.01 45.3655 1494.89 44.2462 1494.89 42.8655V41.9157C1494.89 40.535 1496.01 39.4157 1497.39 39.4157C1498.78 39.4157 1499.89 40.535 1499.89 41.9157V42.8655C1499.89 44.2462 1498.78 45.3655 1497.39 45.3655ZM1497.39 25.4202C1496.01 25.4202 1494.89 24.3009 1494.89 22.9202V21.9704C1494.89 20.5897 1496.01 19.4704 1497.39 19.4704C1498.78 19.4704 1499.89 20.5897 1499.89 21.9704V22.9202C1499.89 24.3009 1498.78 25.4202 1497.39 25.4202ZM1497.39 5.4749C1496.01 5.4749 1494.89 4.35561 1494.89 2.9749V2.5C1494.89 1.11929 1496.01 0 1497.39 0C1498.78 0 1499.89 1.11929 1499.89 2.5V2.9749C1499.89 4.35561 1498.78 5.4749 1497.39 5.4749ZM1481.3 141.582C1479.92 141.582 1478.8 140.463 1478.8 139.082V138.607C1478.8 137.226 1479.92 136.107 1481.3 136.107C1482.68 136.107 1483.8 137.226 1483.8 138.607V139.082C1483.8 140.463 1482.68 141.582 1481.3 141.582ZM1481.3 122.112C1479.92 122.112 1478.8 120.992 1478.8 119.612V118.662C1478.8 117.281 1479.92 116.162 1481.3 116.162C1482.68 116.162 1483.8 117.281 1483.8 118.662V119.612C1483.8 120.992 1482.68 122.112 1481.3 122.112ZM1481.3 102.166C1479.92 102.166 1478.8 101.047 1478.8 99.6663V98.7165C1478.8 97.3358 1479.92 96.2165 1481.3 96.2165C1482.68 96.2165 1483.8 97.3358 1483.8 98.7165V99.6663C1483.8 101.047 1482.68 102.166 1481.3 102.166ZM1481.3 82.221C1479.92 82.221 1478.8 81.1017 1478.8 79.721V78.7712C1478.8 77.3905 1479.92 76.2712 1481.3 76.2712C1482.68 76.2712 1483.8 77.3905 1483.8 78.7712V79.721C1483.8 81.1017 1482.68 82.221 1481.3 82.221ZM1481.3 62.2757C1479.92 62.2757 1478.8 61.1564 1478.8 59.7757V58.8259C1478.8 57.4452 1479.92 56.3259 1481.3 56.3259C1482.68 56.3259 1483.8 57.4452 1483.8 58.8259V59.7757C1483.8 61.1564 1482.68 62.2757 1481.3 62.2757ZM1481.3 42.3304C1479.92 42.3304 1478.8 41.2111 1478.8 39.8304V38.8806C1478.8 37.4999 1479.92 36.3806 1481.3 36.3806C1482.68 36.3806 1483.8 37.4999 1483.8 38.8806V39.8304C1483.8 41.2111 1482.68 42.3304 1481.3 42.3304ZM1481.3 22.3851C1479.92 22.3851 1478.8 21.2658 1478.8 19.8851V19.4102C1478.8 18.0295 1479.92 16.9102 1481.3 16.9102C1482.68 16.9102 1483.8 18.0295 1483.8 19.4102V19.8851C1483.8 21.2658 1482.68 22.3851 1481.3 22.3851ZM1463 155.219C1463 156.599 1464.12 157.719 1465.5 157.719C1466.88 157.719 1468 156.599 1468 155.219V154.744C1468 153.363 1466.88 152.244 1465.5 152.244C1464.12 152.244 1463 153.363 1463 154.744V155.219ZM1463 135.748C1463 137.129 1464.12 138.248 1465.5 138.248C1466.88 138.248 1468 137.129 1468 135.748V134.798C1468 133.418 1466.88 132.298 1465.5 132.298C1464.12 132.298 1463 133.418 1463 134.798V135.748ZM1463 115.803C1463 117.184 1464.12 118.303 1465.5 118.303C1466.88 118.303 1468 117.184 1468 115.803V114.853C1468 113.472 1466.88 112.353 1465.5 112.353C1464.12 112.353 1463 113.472 1463 114.853V115.803ZM1463 95.8577C1463 97.2384 1464.12 98.3577 1465.5 98.3577C1466.88 98.3577 1468 97.2384 1468 95.8577V94.9079C1468 93.5272 1466.88 92.4079 1465.5 92.4079C1464.12 92.4079 1463 93.5272 1463 94.9079V95.8577ZM1463 75.9124C1463 77.2931 1464.12 78.4124 1465.5 78.4124C1466.88 78.4124 1468 77.2931 1468 75.9124V74.9626C1468 73.5819 1466.88 72.4626 1465.5 72.4626C1464.12 72.4626 1463 73.5819 1463 74.9626V75.9124ZM1463 55.9671C1463 57.3478 1464.12 58.4671 1465.5 58.4671C1466.88 58.4671 1468 57.3478 1468 55.9671V55.0173C1468 53.6366 1466.88 52.5173 1465.5 52.5173C1464.12 52.5173 1463 53.6366 1463 55.0173V55.9671ZM1463 36.0218C1463 37.4025 1464.12 38.5218 1465.5 38.5218C1466.88 38.5218 1468 37.4025 1468 36.0218V35.5469C1468 34.1662 1466.88 33.0469 1465.5 33.0469C1464.12 33.0469 1463 34.1662 1463 35.5469V36.0218Z" fill="#D1D1D1"/>
</svg>
