<svg width="115" height="29" viewBox="0 0 115 29" fill="none" xmlns="http://www.w3.org/2000/svg">
<g clip-path="url(#clip0_1_1827)">
<path d="M30.3652 10.1328H41.9368V12.3262H37.3798V24.6931H34.8832V12.3262H30.3457L30.3652 10.1328ZM41.4422 14.1507H43.5766V16.1894H43.6155C43.6934 15.8998 43.8259 15.6262 44.0167 15.3564C44.2076 15.0867 44.4374 14.8329 44.7217 14.6187C44.9904 14.3847 45.2942 14.2102 45.637 14.0753C45.9602 13.9405 46.303 13.8611 46.6457 13.8611C46.9145 13.8611 47.1014 13.881 47.1988 13.881C47.2923 13.9008 47.4091 13.9206 47.5026 13.9206V16.1537C47.3507 16.114 47.1793 16.0942 47.008 16.0743C46.8366 16.0545 46.6847 16.0347 46.5133 16.0347C46.1316 16.0347 45.7694 16.114 45.4266 16.2687C45.0839 16.4234 44.7957 16.6574 44.5308 16.9469C44.2816 17.2563 44.0751 17.6252 43.9193 18.0734C43.7674 18.5216 43.6895 19.0451 43.6895 19.6282V24.6376H41.4032L41.4422 14.1507ZM57.9915 24.6931H55.7403V23.2177H55.7013C55.417 23.7611 54.9963 24.1696 54.4433 24.4988C53.8902 24.828 53.3177 24.9827 52.7451 24.9827C51.3897 24.9827 50.4004 24.6535 49.7889 23.9554C49.1774 23.2772 48.8736 22.2261 48.8736 20.8498V14.1507H51.1599V20.6158C51.1599 21.5479 51.3313 22.2063 51.6935 22.5751C52.0362 22.9638 52.5309 23.1582 53.1619 23.1582C53.637 23.1582 54.0382 23.0789 54.3615 22.9242C54.6848 22.7695 54.9535 22.5751 55.1444 22.3213C55.3547 22.0674 55.4871 21.7581 55.5845 21.409C55.678 21.06 55.7169 20.6713 55.7169 20.2628V14.1507H58.0032V24.6931H57.9915ZM61.8786 21.3139C61.9565 21.9921 62.2019 22.4601 62.642 22.7497C63.0821 23.0233 63.6157 23.1582 64.2233 23.1582C64.4336 23.1582 64.679 23.1384 64.9477 23.0987C65.2165 23.059 65.4813 23.0035 65.7111 22.9043C65.9604 22.8092 66.1513 22.6703 66.3032 22.476C66.4551 22.2816 66.533 22.0476 66.5135 21.7581C66.494 21.4685 66.4005 21.2147 66.1902 21.0203C65.9799 20.826 65.7345 20.6911 65.4268 20.5563C65.123 20.4413 64.7608 20.3421 64.3596 20.2667C63.9585 20.1874 63.5573 20.0922 63.1405 19.9931C62.7238 19.8939 62.3031 19.7789 61.902 19.644C61.5008 19.5092 61.158 19.3347 60.8348 19.0808C60.531 18.8468 60.2622 18.5573 60.0908 18.1884C59.9 17.8195 59.8065 17.3912 59.8065 16.8478C59.8065 16.2647 59.9389 15.8007 60.2272 15.412C60.4959 15.0233 60.8581 14.7139 61.2749 14.4799C61.6916 14.2459 62.1707 14.0714 62.6848 13.9762C63.199 13.881 63.6936 13.8413 64.1532 13.8413C64.6868 13.8413 65.2009 13.9008 65.68 14.0158C66.1591 14.1309 66.6148 14.3054 66.9965 14.579C67.3976 14.8329 67.7209 15.1819 67.9702 15.5905C68.2389 15.999 68.3908 16.5027 68.4648 17.0858H66.0812C65.9682 16.5225 65.7189 16.1537 65.3372 15.9593C64.9361 15.765 64.4998 15.6698 63.9818 15.6698C63.8299 15.6698 63.6196 15.6896 63.4093 15.7094C63.1795 15.7491 62.9886 15.7888 62.7783 15.8641C62.5875 15.9435 62.4161 16.0585 62.2837 16.1933C62.1512 16.3282 62.0733 16.5225 62.0733 16.7566C62.0733 17.0461 62.1668 17.2603 62.3577 17.4348C62.5485 17.6093 62.7978 17.7442 63.1211 17.883C63.4249 17.998 63.7871 18.0972 64.1882 18.1725C64.5894 18.2519 65.0062 18.347 65.4268 18.4462C65.8475 18.5454 66.2447 18.6604 66.6459 18.7952C67.0471 18.9301 67.4093 19.1046 67.7131 19.3585C68.0169 19.5925 68.2857 19.882 68.4765 20.231C68.6674 20.5801 68.7608 21.0283 68.7608 21.532C68.7608 22.1547 68.6284 22.6783 68.3402 23.1225C68.0559 23.5509 67.6936 23.9197 67.2535 24.1894C66.8134 24.4631 66.2993 24.6535 65.7657 24.7923C65.2126 24.9073 64.679 24.9867 64.1454 24.9867C63.4989 24.9867 62.8874 24.9073 62.3343 24.7526C61.7812 24.598 61.2866 24.3639 60.8854 24.0744C60.4842 23.765 60.161 23.3962 59.9312 22.9281C59.7014 22.4799 59.5689 21.9366 59.5495 21.298H61.8552V21.3178L61.8786 21.3139ZM69.4113 14.1507H71.1445V10.9657H73.4308V14.1309H75.4912V15.8602H73.4308V21.4884C73.4308 21.7422 73.4503 21.9366 73.4697 22.1309C73.4892 22.3054 73.5476 22.4601 73.6022 22.5791C73.6801 22.6941 73.793 22.7933 73.9254 22.8528C74.0773 22.9123 74.2682 22.948 74.5369 22.948C74.6888 22.948 74.8602 22.948 75.0121 22.9281C75.164 22.9083 75.3354 22.8885 75.4873 22.8488V24.6535C75.238 24.6931 74.9926 24.713 74.7434 24.7328C74.4941 24.7725 74.2682 24.7725 73.9994 24.7725C73.3879 24.7725 72.9128 24.713 72.5505 24.598C72.1883 24.4829 71.904 24.3084 71.6937 24.0942C71.4833 23.8602 71.3509 23.5905 71.273 23.2613C71.1951 22.9321 71.1601 22.5236 71.1406 22.0952V15.88H69.4074V14.115L69.4113 14.1507ZM77.092 14.1507H79.2458V15.5865H79.2848C79.608 14.9638 80.0482 14.5394 80.6207 14.2657C81.1933 13.992 81.8009 13.8572 82.4903 13.8572C83.3082 13.8572 84.017 13.992 84.6246 14.3054C85.2361 14.5949 85.7308 14.9836 86.132 15.5072C86.5331 16.0109 86.8369 16.6138 87.0278 17.292C87.2186 17.9702 87.3316 18.708 87.3316 19.4655C87.3316 20.1835 87.2381 20.8617 87.0628 21.5241C86.872 22.1825 86.6071 22.7854 86.2449 23.2891C85.8827 23.7928 85.427 24.2013 84.8544 24.5107C84.2819 24.8201 83.6353 24.9748 82.872 24.9748C82.5487 24.9748 82.2059 24.9351 81.8788 24.8796C81.5555 24.8201 81.2322 24.7249 80.9245 24.59C80.6168 24.4552 80.3325 24.2807 80.0871 24.0665C79.8184 23.8523 79.6119 23.6024 79.4406 23.3287H79.4016V28.596H77.1153V14.1507H77.092ZM85.0803 19.4338C85.0803 18.9698 85.0219 18.5017 84.8895 18.0535C84.7765 17.6053 84.5857 17.2206 84.3364 16.8676C84.0872 16.5186 83.7834 16.2449 83.4406 16.0347C83.0784 15.8205 82.6577 15.7253 82.202 15.7253C81.2478 15.7253 80.5233 16.0545 80.0287 16.7367C79.5535 17.415 79.3042 18.3272 79.3042 19.4536C79.3042 19.997 79.3627 20.4809 79.4951 20.9291C79.6275 21.3773 79.7989 21.762 80.0676 22.0952C80.3169 22.4244 80.6207 22.6783 80.9829 22.8726C81.3452 23.067 81.7463 23.1622 82.2215 23.1622C82.7551 23.1622 83.1758 23.0471 83.538 22.8329C83.9002 22.6188 84.1845 22.3292 84.4338 22C84.6636 21.651 84.835 21.2623 84.9284 20.8141C85.0219 20.3461 85.0803 19.8979 85.0803 19.4338ZM89.1037 10.1328H91.39V12.3262H89.1037V10.1328ZM89.1037 14.1507H91.39V24.6931H89.1037V14.1507ZM93.431 10.1328H95.7172V24.6931H93.431V10.1328ZM102.697 24.9867C101.879 24.9867 101.135 24.8518 100.485 24.5583C99.838 24.2688 99.3044 23.8999 98.8448 23.412C98.4047 22.9281 98.062 22.3253 97.8361 21.647C97.6063 20.9688 97.4738 20.2112 97.4738 19.414C97.4738 18.6168 97.5868 17.879 97.8361 17.2008C98.0658 16.5225 98.4086 15.9395 98.8448 15.4358C99.2849 14.9519 99.838 14.5632 100.485 14.2895C101.131 14.0158 101.875 13.8611 102.697 13.8611C103.519 13.8611 104.259 13.996 104.909 14.2895C105.556 14.5632 106.089 14.9479 106.549 15.4358C106.989 15.9197 107.332 16.5225 107.558 17.2008C107.787 17.879 107.92 18.6168 107.92 19.414C107.92 20.231 107.807 20.9688 107.558 21.647C107.308 22.3253 106.985 22.9083 106.549 23.412C106.109 23.8959 105.556 24.2846 104.909 24.5583C104.259 24.828 103.534 24.9867 102.697 24.9867ZM102.697 23.1423C103.191 23.1423 103.651 23.0273 104.013 22.8131C104.395 22.5989 104.679 22.3094 104.929 21.9604C105.178 21.6113 105.349 21.2028 105.462 20.7744C105.575 20.3262 105.634 19.882 105.634 19.414C105.634 18.9658 105.575 18.5216 105.462 18.0734C105.349 17.6252 105.178 17.2404 104.929 16.8874C104.679 16.5344 104.376 16.2647 104.013 16.0545C103.632 15.8403 103.195 15.7253 102.697 15.7253C102.202 15.7253 101.743 15.8403 101.38 16.0545C100.999 16.2687 100.714 16.5582 100.465 16.8874C100.216 17.2365 100.044 17.6252 99.9315 18.0734C99.8185 18.5216 99.7601 18.9658 99.7601 19.414C99.7601 19.878 99.8185 20.3262 99.9315 20.7744C100.044 21.2226 100.216 21.6074 100.465 21.9604C100.714 22.3134 101.018 22.6029 101.38 22.8131C101.762 23.0432 102.202 23.1423 102.697 23.1423ZM108.605 14.1507H110.339V10.9657H112.625V14.1309H114.685V15.8602H112.625V21.4884C112.625 21.7422 112.644 21.9366 112.664 22.1309C112.683 22.3054 112.742 22.4601 112.796 22.5791C112.874 22.6941 112.987 22.7933 113.12 22.8528C113.271 22.9123 113.462 22.948 113.731 22.948C113.883 22.948 114.054 22.948 114.206 22.9281C114.358 22.9083 114.529 22.8885 114.681 22.8488V24.6535C114.432 24.6931 114.187 24.713 113.937 24.7328C113.688 24.7725 113.462 24.7725 113.194 24.7725C112.582 24.7725 112.107 24.713 111.745 24.598C111.382 24.4829 111.098 24.3084 110.888 24.0942C110.677 23.8602 110.545 23.5905 110.467 23.2613C110.389 22.9321 110.354 22.5236 110.335 22.0952V15.88H108.601V14.115V14.1507H108.605Z" fill="#222D39"/>
<path d="M27.6973 10.1339H17.2318L14.0068 0L10.7663 10.1339L0.300781 10.1141L8.76434 16.3848L5.5238 26.5188L13.9874 20.248L22.4509 26.5188L19.2299 16.3848L27.6973 10.1339Z" fill="#00B67A"/>
<path d="M19.9572 18.6792L19.2328 16.3867L14.0098 20.2499L19.9572 18.6792Z" fill="#005128"/>
</g>
<defs>
<clipPath id="clip0_1_1827">
<rect width="114.388" height="28.5971" fill="white" transform="translate(0.300781)"/>
</clipPath>
</defs>
</svg>
