<svg width="14" height="12" viewBox="0 0 14 12" fill="none" xmlns="http://www.w3.org/2000/svg">
<path d="M13.6974 1.58074C13.1838 1.80759 12.6416 1.94937 12.0708 2.03444C12.6416 1.69416 13.0981 1.15539 13.2979 0.503184C12.7557 0.815107 12.1564 1.04196 11.5001 1.18374C10.9865 0.644967 10.2445 0.304688 9.4455 0.304688C7.90455 0.304688 6.64895 1.55238 6.64895 3.08364C6.64895 3.31049 6.67749 3.50899 6.73456 3.70748C4.42312 3.59406 2.33997 2.48815 0.941697 0.78675C0.713407 1.2121 0.570725 1.66581 0.570725 2.17622C0.570725 3.14035 1.05584 3.99105 1.82632 4.50147C1.36974 4.47311 0.941697 4.35969 0.542189 4.16119V4.18954C0.542189 5.55066 1.51242 6.68493 2.79655 6.94014C2.56826 6.99685 2.31144 7.02521 2.05461 7.02521C1.88339 7.02521 1.68364 6.99685 1.51242 6.96849C1.88339 8.0744 2.9107 8.89675 4.13776 8.89675C3.16753 9.63402 1.969 10.0877 0.656334 10.0877C0.428044 10.0877 0.199754 10.0877 0 10.0594C1.2556 10.8534 2.71095 11.3071 4.30898 11.3071C9.47404 11.3071 12.2991 7.05356 12.2991 3.3672C12.2991 3.25378 12.2991 3.11199 12.2991 2.99857C12.8413 2.62993 13.3264 2.14787 13.6974 1.58074Z" fill="#222D39"/>
</svg>
