<svg width="139" height="29" viewBox="0 0 139 29" fill="none" xmlns="http://www.w3.org/2000/svg">
<g clip-path="url(#clip0_1_1824)">
<path d="M88.7893 23.0993L83.5051 15.6629L78.2279 23.0993H76.0546L82.4061 14.1135L76.6055 5.94531H78.7802L83.5065 12.607L88.2329 5.94531H90.4062L84.6097 14.1106L90.9626 23.0979L88.7893 23.0993ZM47.6192 23.0964L41.2594 14.112L47.06 5.94674H44.8853L40.1576 12.6099L35.434 5.94674H33.2662L39.064 14.112L32.707 23.0964H34.8845L40.1617 15.6629L45.4431 23.0964H47.6192Z" fill="#333333"/>
<path d="M59.707 14.7625C59.3798 14.4733 59.0139 14.2327 58.6231 14.0465C59.8479 13.372 60.6128 12.0503 60.6114 10.6111C60.6114 9.51423 60.2221 5.94425 55.2348 5.94425H48.5187V13.3391H46.2819C45.992 13.7315 45.3319 14.6737 45.082 15.0604H48.5187V23.0954L55.2361 23.0968C58.8744 23.0968 61.1347 21.1822 61.1347 18.0891C61.1347 16.7416 60.6432 15.5945 59.707 14.7625ZM50.3759 7.73568H55.2361C56.5506 7.73568 58.7543 8.07507 58.7543 10.4608C58.7543 12.2651 57.4716 13.3391 55.2361 13.3391H50.3759V7.73568ZM55.2348 21.3096H50.3745V15.0661H55.2348C57.0767 15.0661 59.2818 15.5931 59.2818 18.0533C59.2818 20.8858 56.7467 21.3096 55.2348 21.3096ZM69.8708 5.55188C65.2245 5.55188 61.9784 9.23642 61.9784 14.5134C61.9784 19.7974 65.2259 23.4791 69.8708 23.4791C74.5115 23.4791 77.7508 19.7974 77.7508 14.5134C77.7508 9.23642 74.5129 5.55188 69.8708 5.55188ZM69.8708 21.6648C66.3305 21.6648 63.8507 18.7234 63.8507 14.5134C63.8507 10.3033 66.3305 7.36336 69.8708 7.36336C73.4042 7.36336 75.8702 10.3033 75.8702 14.5134C75.8702 18.7234 73.4055 21.6648 69.8708 21.6648ZM4.34962 4.11128L4.3372 4.12417V4.1256C1.70961 6.80774 0.232199 10.4737 0.236341 14.2986C0.232199 17.4275 1.2222 20.4719 3.05447 22.9593C3.0738 22.9837 3.1028 22.9965 3.12903 22.9837C3.15389 22.9693 3.15527 22.9364 3.1456 22.9106C2.09484 19.5397 7.466 11.3715 10.2427 7.94619C10.251 7.93473 10.2634 7.92041 10.2634 7.90466C10.2634 7.88461 10.251 7.87029 10.2372 7.8574C5.56607 3.03728 4.31925 4.13849 4.3372 4.12417L4.34962 4.11128ZM23.6954 4.11128L23.7079 4.12274V4.12417C26.3355 6.80774 27.8129 10.4737 27.8073 14.2971C27.8115 17.426 26.8215 20.4705 24.9892 22.9579C24.9713 22.9822 24.9409 22.9951 24.9147 22.9822C24.8912 22.9679 24.8898 22.935 24.8981 22.9092C25.9488 19.5383 20.5818 11.3644 17.8065 7.93759C17.7968 7.92614 17.7858 7.91182 17.7858 7.8975C17.7858 7.87602 17.7968 7.8617 17.812 7.84881C22.4818 3.02869 23.7203 4.13849 23.7037 4.12417L23.6954 4.11128ZM14.0232 0C16.8055 0 19.0934 0.790466 21.2046 2.09216C21.2308 2.10504 21.2377 2.13512 21.228 2.16233C21.2184 2.1881 21.1894 2.19383 21.1618 2.18667C18.4927 1.58809 14.4361 3.97954 14.0536 4.21868C14.0453 4.22441 14.0357 4.23014 14.0246 4.23014C14.0122 4.23014 14.0025 4.22441 13.9942 4.21868C12.9752 3.61438 9.22509 1.5752 6.86399 2.20242C6.83775 2.20815 6.80876 2.20385 6.79771 2.17665C6.78804 2.15087 6.79771 2.1208 6.82118 2.10648C8.93098 0.790466 11.2479 0 14.0232 0ZM14.0232 11.4675C14.0398 11.4675 14.0564 11.4804 14.066 11.4904C18.1917 14.7439 25.2516 22.786 23.0962 25.0615L23.099 25.0586L23.0976 25.0615H23.0948C20.586 27.3455 17.3591 28.6028 14.0205 28.5985C10.6818 28.6028 7.45495 27.3455 4.94473 25.0615L4.94197 25.0586L4.94473 25.0615C2.79351 22.7875 9.85333 14.7439 13.9735 11.4904C13.9859 11.4804 14.0053 11.4675 14.0232 11.4675ZM123.055 5.94711V20.0223L113.058 5.93565L111.419 5.93279V23.071H113.26V9.30659L123.052 23.081L124.897 23.0839V5.94711H123.055ZM101.862 5.54901C97.2154 5.54901 93.9678 9.23499 93.9678 14.5105C93.9678 19.7946 97.2168 23.482 101.862 23.482C106.502 23.482 109.742 19.7946 109.742 14.5105C109.742 9.23642 106.504 5.54901 101.862 5.54901ZM101.862 21.6648C98.3214 21.6648 95.8415 18.7234 95.8415 14.5105C95.8415 10.3033 98.3214 7.3605 101.862 7.3605C105.395 7.3605 107.861 10.3018 107.861 14.5105C107.861 18.722 105.396 21.6648 101.862 21.6648ZM128.815 21.407V15.0661H137.915V13.3878H128.815V7.6111H138.532V5.93565H126.965V23.0853H138.646V21.407H128.815Z" fill="#333333"/>
</g>
<defs>
<clipPath id="clip0_1_1824">
<rect width="138.41" height="28.5971" fill="white" transform="translate(0.236328)"/>
</clipPath>
</defs>
</svg>
