<?xml version="1.0" standalone="no"?>
<!DOCTYPE svg PUBLIC "-//W3C//DTD SVG 20010904//EN"
 "http://www.w3.org/TR/2001/REC-SVG-20010904/DTD/svg10.dtd">
<svg version="1.0" xmlns="http://www.w3.org/2000/svg"
 width="477.000000pt" height="477.000000pt" viewBox="0 0 477.000000 477.000000"
 preserveAspectRatio="xMidYMid meet">
<metadata>
Created by potrace 1.14, written by Peter Selinger 2001-2017
</metadata>
<g transform="translate(0.000000,477.000000) scale(0.100000,-0.100000)"
fill="#000000" stroke="none">
<path d="M3122 2993 c119 -116 678 -675 702 -702 l20 -22 -209 -209 c-152
-152 -204 -210 -190 -211 11 0 88 -1 171 -1 l152 -1 212 212 212 211 -404 405
-403 405 -176 0 -176 0 89 -87z"/>
<path d="M10 2730 c0 -3 42 -47 93 -98 l92 -92 285 0 c209 0 292 -4 310 -13
51 -26 52 -109 1 -130 -20 -9 -137 -12 -410 -12 l-381 1 0 -268 0 -268 473 0
c472 1 473 1 522 24 129 60 183 197 126 319 -24 51 -48 79 -90 105 l-31 19 21
19 c12 10 32 41 45 68 54 117 1 253 -122 308 -48 22 -56 22 -491 23 -244 0
-443 -2 -443 -5z m848 -537 c14 -11 29 -31 33 -45 9 -34 -17 -87 -48 -99 -14
-5 -154 -9 -312 -9 l-288 0 1 83 1 82 35 5 c19 3 151 4 294 4 238 -2 261 -4
284 -21z"/>
<path d="M1230 2730 c0 -3 52 -56 117 -117 l118 -113 -122 0 -123 0 0 -200
c-1 -110 -1 -238 -1 -285 0 -47 0 -103 1 -125 l0 -40 123 0 122 0 0 440 c0
242 -2 441 -5 441 -17 4 -230 4 -230 -1z"/>
<path d="M1574 2731 c-2 -2 -4 -202 -4 -443 l0 -438 43 0 c66 -1 715 -1 782
-1 l60 1 0 98 0 97 -115 2 c-63 1 -207 2 -320 2 l-205 1 0 343 0 342 -118 0
c-65 0 -120 -2 -123 -4z"/>
<path d="M2561 2730 c-5 -3 -8 -202 -8 -442 l1 -438 36 -1 c39 0 688 0 708 1
11 0 151 135 190 183 13 15 -12 16 -334 16 -191 1 -349 3 -352 5 -2 3 -4 151
-4 328 0 178 -1 330 -4 338 -3 13 -24 16 -115 15 -61 0 -114 -2 -118 -5z"/>
<path d="M4191 2617 c-67 -65 -121 -121 -121 -125 0 -4 37 -44 83 -90 l82 -82
208 208 207 207 -169 0 -170 0 -120 -118z"/>
<path d="M4150 2135 l-85 -85 180 -180 181 -181 169 3 169 3 -261 263 c-144
144 -263 262 -265 262 -2 0 -42 -38 -88 -85z"/>
</g>
</svg>
